<svg xmlns="http://www.w3.org/2000/svg" xmlns:xlink="http://www.w3.org/1999/xlink" viewBox="0,0,256,256" width="64px" height="64px"><g fill="none" fill-rule="nonzero" stroke="none" stroke-width="1" stroke-linecap="butt" stroke-linejoin="miter" stroke-miterlimit="10" stroke-dasharray="" stroke-dashoffset="0" font-family="none" font-weight="none" font-size="none" text-anchor="none" style="mix-blend-mode: normal"><g><path d="M182.256,128l38.106,-38.107c14.982,-14.982 14.982,-39.273 0,-54.256c-14.982,-14.982 -39.274,-14.982 -54.256,0l-38.106,38.107l-38.106,-38.107c-14.982,-14.982 -39.274,-14.982 -54.256,0c-14.982,14.982 -14.982,39.273 0,54.256l38.106,38.107l-38.106,38.107c-14.982,14.982 -14.982,39.273 0,54.256c14.982,14.982 39.274,14.982 54.256,0l38.106,-38.107l38.106,38.107c14.982,14.982 39.274,14.982 54.256,0c14.982,-14.982 14.982,-39.273 0,-54.256z" fill="#f2e718"></path><path d="M52.688,220.359c5.307,5.307 11.785,8.739 18.604,10.274c-12.421,2.829 -25.979,-0.591 -35.65,-10.274c-14.99,-14.979 -14.99,-39.265 0,-54.254l38.104,-38.105l-38.105,-38.105c-14.99,-14.99 -14.99,-39.275 0,-54.254c9.671,-9.683 23.229,-13.103 35.65,-10.274c-6.819,1.534 -13.296,4.966 -18.604,10.274c-14.99,14.979 -14.99,39.264 0,54.254l38.106,38.105l-38.105,38.105c-14.99,14.989 -14.99,39.275 0,54.254z" fill-opacity="0.65882" fill="#000000"></path><path d="M220.359,166.105c14.99,14.99 14.99,39.276 0,54.254c-9.671,9.683 -23.229,13.103 -35.65,10.274c6.819,-1.534 13.296,-4.966 18.604,-10.274c14.99,-14.979 14.99,-39.265 0,-54.254l-38.106,-38.105l38.105,-38.105c14.99,-14.99 14.99,-39.275 0,-54.254c-5.307,-5.307 -11.785,-8.739 -18.604,-10.274c12.421,-2.829 25.979,0.591 35.65,10.274c14.99,14.979 14.99,39.264 0,54.254l-38.104,38.105z" fill-opacity="0.72941" fill="#000000"></path><g fill="#000000"><path d="M187.913,128l35.277,-35.279c16.557,-16.555 16.559,-43.354 0,-59.911c-16.555,-16.555 -43.355,-16.559 -59.913,0l-35.277,35.277l-35.278,-35.277c-16.519,-16.518 -43.395,-16.518 -59.914,0c-16.556,16.555 -16.558,43.354 0,59.911l35.279,35.279l-35.278,35.279c-16.555,16.554 -16.558,43.354 0,59.911c16.519,16.518 43.395,16.518 59.914,0l35.277,-35.277l35.278,35.277c16.555,16.556 43.354,16.559 59.913,0c16.557,-16.556 16.558,-43.354 0,-59.911zM217.534,217.534c-13.429,13.429 -35.168,13.431 -48.599,0l-38.106,-38.106c-1.563,-1.563 -4.095,-1.563 -5.657,0l-38.106,38.106c-13.399,13.399 -35.2,13.397 -48.599,0c-13.428,-13.429 -13.433,-35.167 0,-48.599l38.106,-38.107c1.562,-1.562 1.562,-4.095 0,-5.656l-38.108,-38.108c-13.429,-13.429 -13.431,-35.166 0,-48.599c13.399,-13.399 35.201,-13.399 48.6,0l38.106,38.106c1.563,1.563 4.095,1.563 5.657,0l38.106,-38.106c13.429,-13.429 35.168,-13.431 48.599,0c13.429,13.43 13.433,35.167 0,48.599l-38.106,38.107c-1.562,1.562 -1.562,4.095 0,5.656l38.106,38.107c13.431,13.431 13.432,35.167 0.001,48.6z"></path><path d="M166.28,109.395l-7.109,7.109c-1.562,1.562 -1.562,4.095 0,5.656c1.561,1.562 4.094,1.563 5.657,0l7.109,-7.109c1.562,-1.562 1.562,-4.095 0,-5.656c-1.562,-1.563 -4.095,-1.561 -5.657,0z"></path><path d="M182.544,104.445l28.284,-28.284c1.562,-1.562 1.562,-4.095 0,-5.656c-1.563,-1.563 -4.095,-1.563 -5.657,0l-28.284,28.284c-1.562,1.562 -1.562,4.095 0,5.656c1.563,1.563 4.095,1.563 5.657,0z"></path></g></g></g></svg>