<svg xmlns="http://www.w3.org/2000/svg" xmlns:xlink="http://www.w3.org/1999/xlink" viewBox="0,0,256,256" width="128px" height="128px"><g fill="none" fill-rule="nonzero" stroke="none" stroke-width="1" stroke-linecap="butt" stroke-linejoin="miter" stroke-miterlimit="10" stroke-dasharray="" stroke-dashoffset="0" font-family="none" font-weight="none" font-size="none" text-anchor="none" style="mix-blend-mode: normal"><g transform="scale(0.5,0.5)"><path d="M7.9,256c0,-137 111.1,-248.1 248.1,-248.1c137,0 248.1,111.1 248.1,248.1c0,137 -111.1,248.1 -248.1,248.1c-137,0 -248.1,-111.1 -248.1,-248.1z" fill="#000000"></path><path d="M338.2,125c-30.2,0 -58.2,14.7 -75,39.3l-3.5,4.4l-2.3,-3c-16.7,-25.6 -44.7,-40.8 -75.2,-40.8c-52,0 -89.7,37.7 -89.7,89.7c0,76.8 139,189.9 149.1,198c4.8,4.6 11,7.1 17.7,7.1c6.6,0 12.9,-2.5 17.7,-7.1c10.2,-8.2 151,-123.1 151,-198c0,-51.8 -37.8,-89.6 -89.8,-89.6z" fill="#f2e718"></path></g></g></svg>