<svg xmlns="http://www.w3.org/2000/svg" xmlns:xlink="http://www.w3.org/1999/xlink" viewBox="0,0,256,256" width="24px" height="24px"><defs><radialGradient cx="12" cy="12" r="12" gradientUnits="userSpaceOnUse" id="color-1"><stop offset="0" stop-color="#ffffff" stop-opacity="0"></stop><stop offset="1" stop-color="#ffffff" stop-opacity="0"></stop></radialGradient><linearGradient x1="1.125" y1="6.929" x2="22.875" y2="17.071" gradientUnits="userSpaceOnUse" id="color-2"><stop offset="0" stop-color="#ffffff" stop-opacity="0"></stop><stop offset="1" stop-color="#ffffff" stop-opacity="0"></stop></linearGradient></defs><g fill="none" fill-rule="nonzero" stroke="none" stroke-width="1" stroke-linecap="butt" stroke-linejoin="miter" stroke-miterlimit="10" stroke-dasharray="" stroke-dashoffset="0" font-family="none" font-weight="none" font-size="none" text-anchor="none" style="mix-blend-mode: normal"><g transform="scale(10.66667,10.66667)"><path d="M12,0c-6.6167,0 -12,5.3833 -12,12c0,6.6167 5.3833,12 12,12c6.6167,0 12,-5.3833 12,-12c0,-6.6167 -5.3833,-12 -12,-12z" fill="#f2e718"></path><path d="M3.62085,10.48682c2.98822,-1.72522 6.94415,-0.97229 8.37915,1.51318c1.435,-2.48547 0.10907,-6.2879 -2.87915,-8.01318c-1.21661,-0.70239 -3.29498,-1.11951 -4.81287,-1.18555c-2.63013,2.20306 -4.30798,5.50757 -4.30798,9.19873c0,0.55505 0.05115,1.09723 0.12445,1.63251c0.9646,-1.19336 2.461,-2.54791 3.4964,-3.14569z" fill="#f2e718"></path><path d="M12,12c2.87,0 5.5,-3.0495 5.5,-6.5c0,-1.32727 -0.17139,-3.1723 -0.72986,-4.50543c-1.46338,-0.63684 -3.07507,-0.99457 -4.77014,-0.99457c-2.92554,0 -5.60742,1.05518 -7.69202,2.80127c1.51788,0.06604 3.59625,0.48315 4.81287,1.18555c2.98822,1.72528 4.31415,5.52771 2.87915,8.01318z" fill="#000000"></path><path d="M12,12c1.435,2.48547 5.39093,3.2384 8.37915,1.51312c1.0354,-0.59778 2.5318,-1.95233 3.4964,-3.14563c-0.57678,-4.21069 -3.33563,-7.73248 -7.10541,-9.37292c0.55847,1.33313 0.72986,3.17816 0.72986,4.50543c0,3.4505 -2.63,6.5 -5.5,6.5z" fill="#f2e718"></path><path d="M24,12c0,-0.55505 -0.05115,-1.09723 -0.12445,-1.63251c-0.9646,1.1933 -2.461,2.54785 -3.4964,3.14563c-2.98822,1.72528 -6.94415,0.97235 -8.37915,-1.51312c-1.435,2.48547 -0.10907,6.28784 2.87915,8.01312c1.10229,0.63641 3.27222,1.03949 4.84186,1.15924c2.61291,-2.203 4.27899,-5.49524 4.27899,-9.17236z" fill="#000000"></path><path d="M12,12c-1.435,-2.48547 -5.39093,-3.2384 -8.37915,-1.51318c-1.0354,0.59778 -2.5318,1.95233 -3.4964,3.14569c0.57678,4.21069 3.33563,7.73248 7.10541,9.37292c-0.55847,-1.33313 -0.72986,-3.17816 -0.72986,-4.50543c0,-3.45056 2.63,-6.5 5.5,-6.5z" fill="#000000"></path><path d="M12,12c-2.87,0 -5.5,3.04944 -5.5,6.5c0,1.32727 0.17139,3.1723 0.72986,4.50543c1.46338,0.63684 3.07507,0.99457 4.77014,0.99457c2.93958,0 5.6322,-1.06647 7.72101,-2.82764c-1.56964,-0.11975 -3.73956,-0.52283 -4.84186,-1.15924c-2.98822,-1.72528 -4.31415,-5.52765 -2.87915,-8.01312z" fill="#f2e718"></path><path d="M12,0.25c6.57452,0 11.93201,5.19128 12,11.75c0.00043,-0.04211 0,0.04218 0,0c0,-6.6167 -5.3833,-12 -12,-12c-6.6167,0 -12,5.3833 -12,12c0,0.04218 -0.00043,-0.04211 0,0c0.06799,-6.55872 5.42548,-11.75 12,-11.75z" fill="#ffffff" opacity="0.2"></path><path d="M12,23.75c-6.18288,0 -11.28939,-4.59121 -11.9324,-10.59325c-0.04073,-0.38019 -0.06355,-0.76604 -0.0676,-1.15675c-0.00043,0.04211 0,-0.04218 0,0c0,0.47846 0.02815,0.95048 0.08288,1.41447c0.70212,5.95263 5.77889,10.58553 11.91712,10.58553c5.90961,0 10.83535,-4.29422 11.82063,-9.92606c0.04975,-0.28436 0.08945,-0.57214 0.11873,-0.86294c0.0401,-0.39831 0.06064,-0.8023 0.06064,-1.211c0,-0.04218 0.00043,0.04211 0,0c-0.00576,0.55603 -0.04955,1.10224 -0.12886,1.63629c-0.85627,5.76533 -5.85399,10.11371 -11.87114,10.11371z" fill="#000000" opacity="0.1"></path><path d="M12,0c-6.6167,0 -12,5.3833 -12,12c0,6.6167 5.3833,12 12,12c6.6167,0 12,-5.3833 12,-12c0,-6.6167 -5.3833,-12 -12,-12z" fill="url(#color-1)"></path><path d="M12,0c-6.6167,0 -12,5.3833 -12,12c0,6.6167 5.3833,12 12,12c6.6167,0 12,-5.3833 12,-12c0,-6.6167 -5.3833,-12 -12,-12z" fill="url(#color-2)"></path></g></g></svg>