<svg version="1.1" id="Layer_1" xmlns="http://www.w3.org/2000/svg" xmlns:xlink="http://www.w3.org/1999/xlink" x="0px" y="0px"
	 width="100%" viewBox="0 0 64 64" enable-background="new 0 0 64 64" xml:space="preserve">
<path fill="#F2E718" opacity="1.000000" stroke="none" 
	d="
M65.000000,22.000000 
	C65.000000,29.020948 65.000000,36.041897 64.718674,43.199242 
	C64.175453,43.537724 63.770515,43.686443 63.672348,43.949600 
	C60.176033,53.322056 54.281097,60.265007 44.382797,63.263474 
	C44.105316,63.347530 44.121010,64.399406 44.000000,65.000000 
	C36.979053,65.000000 29.958105,65.000000 22.800789,64.719109 
	C22.462969,64.176590 22.314896,63.772083 22.052351,63.674004 
	C12.681034,60.173222 5.735638,54.277294 2.733562,44.379391 
	C2.649756,44.103081 1.599566,44.119881 1.000000,44.000000 
	C1.000000,36.979053 1.000000,29.958105 1.281333,22.800762 
	C1.824552,22.462286 2.229762,22.313509 2.327604,22.050421 
	C5.816134,12.670103 11.728552,5.744651 21.617121,2.736524 
	C21.895107,2.651959 21.878983,1.600568 22.000000,1.000000 
	C29.020948,1.000000 36.041897,1.000000 43.199543,1.279072 
	C45.274467,2.593380 47.345692,3.440264 49.126835,4.697958 
	C55.319431,9.070657 61.214661,13.740010 63.267887,21.622147 
	C63.335297,21.880938 64.400116,21.879911 65.000000,22.000000 
M43.847195,42.686028 
	C43.991772,42.253086 44.136349,41.820145 44.280926,41.387203 
	C44.017300,41.306480 43.753670,41.225758 43.490044,41.145035 
	C43.459438,41.882946 43.428833,42.620861 42.560078,43.076302 
	C42.050468,43.363762 41.540863,43.651222 41.031258,43.938683 
	C41.154743,44.139740 41.278233,44.340797 41.401718,44.541855 
	C42.028214,44.111816 42.654713,43.681778 43.847195,42.686028 
M22.153105,23.314177 
	C22.008196,23.746988 21.863287,24.179802 21.718378,24.612614 
	C21.981859,24.693682 22.245340,24.774748 22.508821,24.855816 
	C22.540268,24.118141 22.571712,23.380466 23.442871,22.924145 
	C23.952141,22.634455 24.461411,22.344765 24.970680,22.055075 
	C24.845894,21.853704 24.721106,21.652334 24.596319,21.450964 
	C23.971251,21.884205 23.346180,22.317446 22.153105,23.314177 
M35.728329,50.149456 
	C36.068691,50.309589 36.409050,50.469719 36.749413,50.629852 
	C36.526257,50.061893 36.303097,49.493938 36.014729,48.144341 
	C37.720558,47.129379 39.426388,46.114418 42.010506,44.576878 
	C37.837936,45.132599 34.869038,45.528011 31.900139,45.923420 
	C31.883747,46.419628 31.867357,46.915836 31.850967,47.412045 
	C33.016045,48.175293 34.181122,48.938545 35.728329,50.149456 
M30.267757,15.845966 
	C29.927650,15.688417 29.587543,15.530869 29.247437,15.373320 
	C29.471615,15.940249 29.695793,16.507179 29.985184,17.855703 
	C28.279255,18.870361 26.573328,19.885017 23.992912,21.419804 
	C28.160187,20.867550 31.128847,20.474136 34.097507,20.080725 
	C34.113029,19.589565 34.128551,19.098404 34.144073,18.607244 
	C32.980888,17.834219 31.817705,17.061193 30.267757,15.845966 
M45.993706,30.777962 
	C45.655678,34.186840 45.317650,37.595718 45.006863,40.729862 
	C49.135399,35.610836 49.128056,30.311834 44.000240,24.066166 
	C44.887207,26.709473 45.417358,28.289408 45.993706,30.777962 
M21.100986,24.869633 
	C17.175762,29.529007 16.695740,36.472404 21.912107,41.423210 
	C19.467367,35.723911 18.862459,30.618586 21.100986,24.869633 
M39.837048,21.259109 
	C40.226154,21.087652 40.615265,20.916197 41.004372,20.744740 
	C40.092716,20.371824 39.181065,19.998911 38.269409,19.625998 
	C38.527737,20.084135 38.786064,20.542273 39.837048,21.259109 
M27.447729,46.774406 
	C26.866728,46.005840 26.285727,45.237274 25.704725,44.468708 
	C25.393517,44.760010 25.082308,45.051315 24.771099,45.342621 
	C25.445726,45.652241 26.120354,45.961857 27.447729,46.774406 
M29.346140,22.248089 
	C29.818106,22.353523 30.290071,22.458958 30.762037,22.564392 
	C30.483265,22.289467 30.204493,22.014544 29.346140,22.248089 
M36.129520,44.217220 
	C36.011505,43.857193 35.893490,43.497166 35.775475,43.137138 
	C35.647041,43.598949 35.518612,44.060760 36.129520,44.217220 
z"/>
<path fill="#000000" opacity="1.000000" stroke="none" 
	d="
M65.000000,21.531088 
	C64.400116,21.879911 63.335297,21.880938 63.267887,21.622147 
	C61.214661,13.740010 55.319431,9.070657 49.126835,4.697958 
	C47.345692,3.440264 45.274467,2.593380 43.668121,1.279072 
	C50.926151,1.000000 57.852299,1.000000 65.000000,1.000000 
	C65.000000,7.685770 65.000000,14.373973 65.000000,21.531088 
z"/>
<path fill="#000000" opacity="1.000000" stroke="none" 
	d="
M21.531088,1.000000 
	C21.878983,1.600568 21.895107,2.651959 21.617121,2.736524 
	C11.728552,5.744651 5.816134,12.670103 2.327604,22.050421 
	C2.229762,22.313509 1.824552,22.462286 1.281333,22.332184 
	C1.000000,15.073850 1.000000,8.147699 1.000000,1.000000 
	C7.685770,1.000000 14.373973,1.000000 21.531088,1.000000 
z"/>
<path fill="#000000" opacity="1.000000" stroke="none" 
	d="
M44.468910,65.000000 
	C44.121010,64.399406 44.105316,63.347530 44.382797,63.263474 
	C54.281097,60.265007 60.176033,53.322056 63.672348,43.949600 
	C63.770515,43.686443 64.175453,43.537724 64.718674,43.667824 
	C65.000000,50.926151 65.000000,57.852299 65.000000,65.000000 
	C58.314232,65.000000 51.626026,65.000000 44.468910,65.000000 
z"/>
<path fill="#000000" opacity="1.000000" stroke="none" 
	d="
M1.000000,44.468910 
	C1.599566,44.119881 2.649756,44.103081 2.733562,44.379391 
	C5.735638,54.277294 12.681034,60.173222 22.052351,63.674004 
	C22.314896,63.772083 22.462969,64.176590 22.332211,64.719109 
	C15.073850,65.000000 8.147699,65.000000 1.000000,65.000000 
	C1.000000,58.314232 1.000000,51.626026 1.000000,44.468910 
z"/>
<path fill="#000000" opacity="1.000000" stroke="none" 
	d="
M45.970604,30.323650 
	C45.417358,28.289408 44.887207,26.709473 44.000240,24.066166 
	C49.128056,30.311834 49.135399,35.610836 45.006863,40.729862 
	C45.317650,37.595718 45.655678,34.186840 45.970604,30.323650 
z"/>
<path fill="#000000" opacity="1.000000" stroke="none" 
	d="
M21.408297,25.236235 
	C18.862459,30.618586 19.467367,35.723911 21.912107,41.423210 
	C16.695740,36.472404 17.175762,29.529007 21.408297,25.236235 
z"/>
<path fill="#000000" opacity="1.000000" stroke="none" 
	d="
M30.654522,16.288168 
	C31.817705,17.061193 32.980888,17.834219 34.144073,18.607244 
	C34.128551,19.098404 34.113029,19.589565 34.097507,20.080725 
	C31.128847,20.474136 28.160187,20.867550 23.992912,21.419804 
	C26.573328,19.885017 28.279255,18.870361 30.139004,17.271027 
	C30.413387,16.553623 30.533955,16.420897 30.654522,16.288168 
z"/>
<path fill="#000000" opacity="1.000000" stroke="none" 
	d="
M35.346199,49.701797 
	C34.181122,48.938545 33.016045,48.175293 31.850967,47.412045 
	C31.867357,46.915836 31.883747,46.419628 31.900139,45.923420 
	C34.869038,45.528011 37.837936,45.132599 42.010506,44.576878 
	C39.426388,46.114418 37.720558,47.129379 35.861214,48.726578 
	C35.587200,49.439804 35.466702,49.570801 35.346199,49.701797 
z"/>
<path fill="#000000" opacity="1.000000" stroke="none" 
	d="
M39.440720,21.129759 
	C38.786064,20.542273 38.527737,20.084135 38.269409,19.625998 
	C39.181065,19.998911 40.092716,20.371824 41.004372,20.744740 
	C40.615265,20.916197 40.226154,21.087652 39.440720,21.129759 
z"/>
<path fill="#000000" opacity="1.000000" stroke="none" 
	d="
M27.121357,46.522942 
	C26.120354,45.961857 25.445726,45.652241 24.771099,45.342621 
	C25.082308,45.051315 25.393517,44.760010 25.704725,44.468708 
	C26.285727,45.237274 26.866728,46.005840 27.121357,46.522942 
z"/>
<path fill="#000000" opacity="1.000000" stroke="none" 
	d="
M29.635929,21.993855 
	C30.204493,22.014544 30.483265,22.289467 30.762037,22.564392 
	C30.290071,22.458958 29.818106,22.353523 29.635929,21.993855 
z"/>
<path fill="#000000" opacity="1.000000" stroke="none" 
	d="
M22.603157,22.642792 
	C22.571712,23.380466 22.540268,24.118141 22.508821,24.855816 
	C22.245340,24.774748 21.981859,24.693682 21.718378,24.612614 
	C21.863287,24.179802 22.008196,23.746988 22.408230,23.004791 
	C22.663353,22.695406 22.603157,22.642792 22.603157,22.642792 
z"/>
<path fill="#000000" opacity="1.000000" stroke="none" 
	d="
M22.692232,22.723045 
	C23.346180,22.317446 23.971251,21.884205 24.596319,21.450964 
	C24.721106,21.652334 24.845894,21.853704 24.970680,22.055075 
	C24.461411,22.344765 23.952141,22.634455 23.023014,22.783468 
	C22.603157,22.642792 22.663353,22.695406 22.692232,22.723045 
z"/>
<path fill="#000000" opacity="1.000000" stroke="none" 
	d="
M43.398228,43.358772 
	C43.428833,42.620861 43.459438,41.882946 43.490044,41.145035 
	C43.753670,41.225758 44.017300,41.306480 44.280926,41.387203 
	C44.136349,41.820145 43.991772,42.253086 43.592869,42.996284 
	C43.338543,43.306538 43.398228,43.358772 43.398228,43.358772 
z"/>
<path fill="#000000" opacity="1.000000" stroke="none" 
	d="
M35.759850,44.369896 
	C35.518612,44.060760 35.647041,43.598949 35.775475,43.137138 
	C35.893490,43.497166 36.011505,43.857193 35.759850,44.369896 
z"/>
<path fill="#000000" opacity="1.000000" stroke="none" 
	d="
M43.309875,43.279137 
	C42.654713,43.681778 42.028214,44.111816 41.401718,44.541855 
	C41.278233,44.340797 41.154743,44.139740 41.031258,43.938683 
	C41.540863,43.651222 42.050468,43.363762 42.979153,43.217537 
	C43.398228,43.358772 43.338543,43.306538 43.309875,43.279137 
z"/>
<path fill="#000000" opacity="1.000000" stroke="none" 
	d="
M30.106398,16.880228 
	C29.695793,16.507179 29.471615,15.940249 29.247437,15.373320 
	C29.587543,15.530869 29.927650,15.688417 30.461140,16.067066 
	C30.533955,16.420897 30.413387,16.553623 30.106398,16.880228 
z"/>
<path fill="#000000" opacity="1.000000" stroke="none" 
	d="
M35.893822,49.117393 
	C36.303097,49.493938 36.526257,50.061893 36.749413,50.629852 
	C36.409050,50.469719 36.068691,50.309589 35.537262,49.925629 
	C35.466702,49.570801 35.587200,49.439804 35.893822,49.117393 
z"/>
</svg>