<svg xmlns="http://www.w3.org/2000/svg" xmlns:xlink="http://www.w3.org/1999/xlink" viewBox="0,0,256,256" width="80px" height="80px"><g fill="none" fill-rule="nonzero" stroke="none" stroke-width="1" stroke-linecap="butt" stroke-linejoin="miter" stroke-miterlimit="10" stroke-dasharray="" stroke-dashoffset="0" font-family="none" font-weight="none" font-size="none" text-anchor="none" style="mix-blend-mode: normal"><g transform="scale(3.2,3.2)"><path d="M40,77.5c-20.678,0 -37.5,-16.822 -37.5,-37.5c0,-20.678 16.822,-37.5 37.5,-37.5c20.678,0 37.5,16.822 37.5,37.5c0,20.678 -16.822,37.5 -37.5,37.5z" fill="#000000"></path><path d="M40,3c20.402,0 37,16.598 37,37c0,20.402 -16.598,37 -37,37c-20.402,0 -37,-16.598 -37,-37c0,-20.402 16.598,-37 37,-37M40,2c-20.987,0 -38,17.013 -38,38c0,20.987 17.013,38 38,38c20.987,0 38,-17.013 38,-38c0,-20.987 -17.013,-38 -38,-38z" fill="#f2e718"></path><g fill="#f2e718"><path d="M35,61.5c-5.79,0 -10.5,-4.71 -10.5,-10.5c0,-5.79 4.71,-10.5 10.5,-10.5c1.668,0 3.273,0.389 4.772,1.156l0.728,0.372v-25.22l15,7.5v8.874l-10,-5.11v23.643l-0.048,0.24c-0.492,5.441 -4.985,9.545 -10.452,9.545z"></path><path d="M41,17.618l14,7v7.748l-8.545,-4.367l-1.455,-0.744v1.634v22.507l-0.046,0.514c-0.468,5.182 -4.747,9.09 -9.954,9.09c-5.514,0 -10,-4.486 -10,-10c0,-5.514 4.486,-10 10,-10c1.589,0 3.117,0.37 4.544,1.101l1.456,0.745v-1.636v-23.592M40,16v25.21c-1.501,-0.768 -3.198,-1.21 -5,-1.21c-6.075,0 -11,4.925 -11,11c0,6.075 4.925,11 11,11c5.737,0 10.444,-4.394 10.95,-10h0.05v-23.111l10,5.111v-10l-16,-8z"></path></g></g></g></svg>